<svg xmlns="http://www.w3.org/2000/svg" viewBox="0 0 36 36"><path d="M22.908 10h-9.816c-1.705 0-3.092 1.387-3.092 3.092v9.816c0 1.705 1.387 3.092 3.092 3.092h9.816c1.705 0 3.092-1.387 3.092-3.092v-9.816c0-1.705-1.387-3.092-3.092-3.092zm.887 1.844l.354-.001v2.712l-2.703.009-.009-2.712 2.358-.008zm-8.078 4.513c.512-.709 1.344-1.174 2.283-1.174s1.771.465 2.283 1.174c.334.463.533 1.029.533 1.643 0 1.553-1.265 2.815-2.816 2.815-1.553 0-2.816-1.263-2.816-2.815 0-.613.199-1.18.533-1.643zm8.724 6.551c0 .846-.688 1.533-1.533 1.533h-9.816c-.846 0-1.533-.688-1.533-1.533v-6.551h2.389c-.206.508-.322 1.062-.322 1.643 0 2.412 1.962 4.375 4.375 4.375s4.375-1.963 4.375-4.375c0-.581-.117-1.135-.323-1.643h2.39v6.551z"/></svg>
