<svg xmlns="http://www.w3.org/2000/svg" viewBox="0 0 36 36"><path d="M26 13.539c-.589.261-1.222.438-1.886.517.678-.406 1.198-1.049 1.443-1.815-.634.376-1.337.649-2.084.796-.598-.639-1.452-1.037-2.396-1.037-1.813 0-3.282 1.47-3.282 3.282 0 .257.029.507.085.747-2.729-.137-5.147-1.443-6.766-3.429-.283.484-.444 1.049-.444 1.65 0 1.139.579 2.143 1.46 2.731-.538-.018-1.044-.165-1.487-.411v.042c0 1.59 1.132 2.916 2.633 3.218-.275.075-.565.115-.864.115-.212 0-.417-.021-.618-.059.418 1.304 1.631 2.252 3.066 2.278-1.123.881-2.538 1.405-4.076 1.405-.265 0-.526-.016-.783-.046 1.452.934 3.177 1.477 5.031 1.477 6.037 0 9.34-5.001 9.34-9.338l-.01-.425c.642-.462 1.198-1.04 1.638-1.698z"/></svg>
